<svg width="24" height="24" viewBox="0 0 24 24" fill="none" xmlns="http://www.w3.org/2000/svg">
<path fill-rule="evenodd" clip-rule="evenodd" d="M12 24C18.6274 24 24 18.6274 24 12C24 5.37258 18.6274 0 12 0C5.37258 0 0 5.37258 0 12C0 18.6274 5.37258 24 12 24Z" fill="#55ACEE"/>
<path fill-rule="evenodd" clip-rule="evenodd" d="M17.4967 7.41041C17.158 7.62736 16.3803 7.94263 15.9968 7.94263V7.94327C15.5589 7.4858 14.9424 7.2002 14.2586 7.2002C12.9306 7.2002 11.8537 8.27706 11.8537 9.60455C11.8537 9.78899 11.8751 9.9689 11.9146 10.1414H11.9142C10.1128 10.0941 8.14261 9.19124 6.95656 7.64589C6.22734 8.9081 6.85838 10.3119 7.68591 10.8234C7.40264 10.8447 6.88118 10.7907 6.63573 10.5512C6.61928 11.389 7.0221 12.499 8.4909 12.9017C8.20802 13.0539 7.70728 13.0102 7.48955 12.9779C7.56597 13.6851 8.55631 14.6096 9.63926 14.6096C9.25328 15.0561 7.80106 15.8659 6.17139 15.6082C7.27817 16.2816 8.5681 16.6716 9.93341 16.6716C13.8133 16.6716 16.8264 13.5272 16.6642 9.64807C16.6636 9.64379 16.6636 9.63952 16.6632 9.63485C16.6636 9.62488 16.6642 9.61491 16.6642 9.60455C16.6642 9.5925 16.6632 9.5811 16.6628 9.56944C17.016 9.32788 17.49 8.90058 17.8285 8.33819C17.6322 8.44634 17.0431 8.66291 16.495 8.71666C16.8467 8.52678 17.3679 7.90493 17.4967 7.41041" fill="white"/>
</svg>
