<svg width="36" height="36" viewBox="0 0 36 36" fill="none" xmlns="http://www.w3.org/2000/svg">
<g clip-path="url(#clip0_43_112)">
<path fill-rule="evenodd" clip-rule="evenodd" d="M18 36C27.9411 36 36 27.9411 36 18C36 8.05887 27.9411 0 18 0C8.05887 0 0 8.05887 0 18C0 27.9411 8.05887 36 18 36Z" fill="#52AB84"/>
<path d="M13.2564 23V20.9773L17.5007 17.2614C17.8189 16.9735 18.0897 16.7102 18.3132 16.4716C18.5367 16.2292 18.7071 15.9867 18.8246 15.7443C18.942 15.4981 19.0007 15.2311 19.0007 14.9432C19.0007 14.6212 18.9306 14.3466 18.7905 14.1193C18.6503 13.8883 18.4571 13.7102 18.2109 13.5852C17.9647 13.4602 17.6825 13.3977 17.3643 13.3977C17.0424 13.3977 16.7602 13.464 16.5178 13.5966C16.2753 13.7254 16.0859 13.9129 15.9496 14.1591C15.817 14.4053 15.7507 14.7045 15.7507 15.0568H13.0859C13.0859 14.2652 13.264 13.5814 13.62 13.0057C13.9761 12.4299 14.4761 11.9867 15.12 11.6761C15.7678 11.3617 16.5196 11.2045 17.3757 11.2045C18.2583 11.2045 19.0253 11.3523 19.6768 11.6477C20.3284 11.9432 20.8321 12.3561 21.1882 12.8864C21.5481 13.4129 21.728 14.0246 21.728 14.7216C21.728 15.1648 21.639 15.6042 21.4609 16.0398C21.2829 16.4754 20.9628 16.9564 20.5007 17.483C20.0424 18.0095 19.3909 18.6402 18.5462 19.375L17.1541 20.6591V20.733H21.87V23H13.2564Z" fill="white"/>
</g>
<defs>
<clipPath id="clip0_43_112">
<rect width="36" height="36" fill="white"/>
</clipPath>
</defs>
</svg>
