<svg width="36" height="36" viewBox="0 0 36 36" fill="none" xmlns="http://www.w3.org/2000/svg">
<g clip-path="url(#clip0_43_122)">
<path fill-rule="evenodd" clip-rule="evenodd" d="M18 36C27.9411 36 36 27.9411 36 18C36 8.05887 27.9411 0 18 0C8.05887 0 0 8.05887 0 18C0 27.9411 8.05887 36 18 36Z" fill="#52AB84"/>
<path d="M17.4482 23.1591C20.1754 23.1591 22.1129 21.7159 22.1072 19.6932C22.1129 18.2614 21.1754 17.2386 19.38 17.0284V16.9375C20.7266 16.7443 21.6811 15.8409 21.6754 14.5341C21.6811 12.6364 19.9652 11.2045 17.4709 11.2045C14.9595 11.2045 13.13 12.6591 13.1072 14.7273H15.7947C15.8175 13.9318 16.5334 13.3977 17.4709 13.3977C18.3629 13.3977 18.9709 13.9375 18.9652 14.7159C18.9709 15.5227 18.255 16.0795 17.2209 16.0795H16.0902V18.0795H17.2209C18.397 18.0795 19.1641 18.6591 19.1527 19.4773C19.1641 20.3011 18.4595 20.875 17.4595 20.875C16.4652 20.875 15.7322 20.3466 15.7038 19.5795H12.8743C12.897 21.6818 14.7891 23.1591 17.4482 23.1591Z" fill="white"/>
</g>
<defs>
<clipPath id="clip0_43_122">
<rect width="36" height="36" fill="white"/>
</clipPath>
</defs>
</svg>
