<svg width="422" height="346" viewBox="0 0 422 346" fill="none" xmlns="http://www.w3.org/2000/svg">
<mask id="mask0_2066_2" style="mask-type:luminance" maskUnits="userSpaceOnUse" x="0" y="0" width="422" height="336">
<path fill-rule="evenodd" clip-rule="evenodd" d="M0 0H422V335.896H0V0Z" fill="white"/>
</mask>
<g mask="url(#mask0_2066_2)">
<path fill-rule="evenodd" clip-rule="evenodd" d="M371.254 204.842C367.724 210.196 369.964 213.995 367.508 213.995C366.898 213.995 366.457 213.659 366.271 212.921C365.964 211.704 365.689 206.761 362.935 206.761C362.417 206.761 361.964 206.963 361.241 206.963C360.021 206.963 359.822 205.939 359.822 205.61C359.822 204.003 364.308 203.093 364.942 197.744C365.095 196.454 366.605 195.795 366.936 195.795C367.502 195.795 368.033 196.375 368.211 197.161C369.916 204.681 371.589 201.977 371.589 203.882C371.589 204.183 371.474 204.509 371.254 204.842ZM347.782 96.3894C347.648 96.5851 347.469 97.0528 347.131 97.3061C344.424 99.33 344.35 103.181 344.35 103.746C344.35 103.826 344.35 103.906 344.35 103.987C344.35 104.248 344.418 105.937 342.973 105.937C341.269 105.937 341.802 103.418 339.836 99.4484C338.43 96.6085 335.576 98.1984 335.576 96.1226C335.576 95.5922 335.896 95.1015 336.531 94.9068C342.911 92.9465 340.059 86.0547 342.454 86.0547C344.233 86.0547 343.359 88.1006 345.467 92.8056C346.625 95.3908 347.782 94.506 347.782 96.3618C347.782 96.3712 347.782 96.3801 347.782 96.3894ZM184.428 72.1842C180.705 75.5536 182.816 81.2371 180.358 81.2371C179.017 81.2371 179.222 80.0915 177.876 76.3083C176.038 71.1402 172.001 72.9979 172.001 70.5728C172.001 69.1641 173.607 69.2675 175.284 68.1084C179.029 65.5204 178.388 62.1416 180.027 62.1416C182.48 62.1416 179.59 65.048 183.141 69.4857C183.494 69.9263 184.844 70.2296 184.844 71.3251C184.844 71.6266 184.713 71.9267 184.428 72.1842ZM160.382 216.06C159.923 216.06 159.328 215.705 159.328 215.023C159.328 213.601 164.58 207.372 164.58 197.934C164.58 193.258 163.14 191.125 163.097 191.059C161.332 192.531 160.168 193.949 158.053 193.949C156.799 193.949 153.813 192.972 153.813 189.4C153.813 186.728 155.691 184.763 158.184 184.763C159.607 184.763 160.755 185.397 162.557 186.421C162.557 186.053 162.576 185.742 162.576 185.455C162.576 179.523 154.788 174.561 150.033 174.561C149.424 174.561 148.797 174.603 148.147 174.603C148.268 176.49 149.353 178.807 149.353 179.308C149.353 179.997 148.705 180.365 148.226 180.365C147.349 180.365 146.932 179.215 146.926 179.194C145.361 174.096 145.432 174.007 145.432 173.712C145.432 173.061 145.71 172.484 146.322 172.053C153.03 167.327 152.887 167.466 153.357 167.466C154.261 167.466 154.548 168.351 154.548 168.683C154.548 169.67 153.689 169.924 150.631 171.838C165.019 175.009 165.191 185.198 165.191 185.448C165.191 187.202 164.7 187.848 164.7 188.283C164.7 189.324 167.171 191.246 167.171 197.844C167.171 206.793 162.034 216.06 160.382 216.06ZM96.9888 136.221C96.9888 119.962 112.244 106.456 128.416 106.456C143.661 106.456 162.145 128.139 152.941 149.11C149.101 157.859 138.443 168.077 127.693 168.077C124.361 168.077 96.9888 166.042 96.9888 136.221ZM91.0396 131.648C89.2902 131.784 85.6796 131.852 85.631 131.852C85.1038 131.852 84.3359 131.292 84.3359 130.489C84.3359 129.126 85.6707 129.206 86.6275 129.206C87.2014 129.206 87.7763 129.224 88.3507 129.224V129.176C88.8424 129.176 89.3351 129.165 89.8268 129.165C90.4676 129.165 92.1857 129.021 92.1857 130.438C92.1857 131.02 91.758 131.593 91.0396 131.648ZM124.651 94.7705C124.696 94.7705 126.11 94.7799 128.95 95.351C129.572 95.4765 129.887 96.0111 129.887 96.5369C129.887 97.9746 128.148 97.786 127.241 97.8632C124.716 98.0781 125.146 98.1291 124.626 98.1291C123.494 98.1291 123.527 97.1993 123.403 96.2284C123.402 96.1956 123.401 96.1633 123.401 96.131C123.401 95.329 123.799 94.7705 124.651 94.7705ZM163.165 133.604C163.635 133.705 165.135 133.755 165.135 135.053C165.135 135.943 164.426 136.204 164.217 136.269C163.284 136.559 159.989 137.084 159.95 137.084C159.421 137.084 158.71 136.643 158.71 135.924C158.71 133.791 161.184 133.876 163.165 133.604ZM14.3166 185.576C13.6338 185.576 13.028 184.982 13.028 184.344C13.028 183.686 13.6184 183.092 14.2774 183.092C14.9546 183.092 15.5169 183.654 15.5169 184.339C15.5169 185.027 14.9817 185.576 14.3166 185.576ZM11.9454 171.977C11.2256 171.977 10.6348 171.435 10.6348 170.754C10.6348 170.582 10.7339 169.615 11.8608 169.615C12.1262 169.615 13.1774 169.789 13.1774 170.787C13.1774 171.619 12.4104 171.977 11.9454 171.977ZM9.6695 157.06C9.6695 156.238 10.3907 155.937 10.8417 155.937C11.5489 155.937 12.1962 156.516 12.1962 157.156C12.1962 157.172 12.1635 158.253 11.0025 158.253C10.0785 158.253 9.6695 157.566 9.6695 157.06ZM74.2281 177.914C74.18 177.921 23.4009 181.216 23.3527 181.216C21.9305 181.216 21.8225 180.33 21.8225 180.125C21.8225 179.914 21.9188 179.671 21.9188 178.958C21.9188 177.787 18.8359 157.157 18.8359 155.879C18.8359 154.869 20.7003 140.801 26.8283 140.801C30.7726 140.801 29.8023 146.068 32.9674 150.352C36.478 143.313 33.2165 128.274 40.6247 128.274C47.6837 128.274 44.0661 145.712 48.1403 145.712C49.7444 145.712 50.6787 142.28 52.3968 138.037C54.3173 133.293 58.7192 130.805 60.9702 130.805C68.7859 130.805 66.4657 149.374 68.7718 149.374C69.5818 149.374 70.532 147.929 72.2497 147.929C73.413 147.929 74.4034 148.684 74.9685 150.179C76.9399 155.394 77.5424 169.172 77.5424 172.186C77.5424 175.174 77.2531 177.468 74.2281 177.914ZM407.603 201.133C372.845 170.669 368.501 135.854 359.812 92.3354C351.122 48.8161 316.364 5.29733 230.861 0.324006C145.358 -4.64932 133.888 48.8161 99.1299 79.2796C68.3224 106.281 40.9277 88.8391 13.9214 133.013C16.4631 149.425 19.0076 165.857 21.5623 182.354C41.3876 181.139 61.1358 179.929 81.0265 178.71C80.8171 178.304 80.5694 177.95 80.5694 177.487C80.5694 176.763 81.2929 176.388 81.7183 176.388C82.1356 176.388 82.8339 176.77 83.0036 176.889C85.9757 178.982 86.6497 179.414 86.6497 180.253C86.6497 180.746 86.3066 181.215 85.6275 181.567C79.8333 184.568 79.7538 184.408 79.4944 184.408C78.5391 184.408 78.2764 183.542 78.2764 183.2C78.2764 182.226 79.2163 182.069 79.5023 181.409C74.8911 181.623 22.456 184.947 21.6596 184.947C18.7412 184.947 14.9081 157.993 11.8752 136.481C10.7198 138.508 9.56444 140.652 8.40998 142.924C8.49365 142.904 8.58011 142.891 8.67219 142.891C9.28868 142.891 9.74251 143.348 9.74251 143.961C9.74251 144.584 9.29008 145.03 8.67873 145.03C8.10898 145.03 7.81219 144.705 7.68553 144.366C6.30579 147.145 4.92653 150.104 3.54679 153.262C-7.48081 180.877 9.48077 204.983 23.352 218.917C59.3181 214.947 150.213 207.502 150.252 207.502C151.107 207.502 151.776 208.031 151.776 208.777C151.776 208.991 151.698 209.262 151.698 210.011C151.698 210.355 155.603 245.892 156.106 247.378C171.924 222.158 202.36 235.873 216.628 219.345C216.194 219.261 215.958 219.174 215.725 219.174C215.157 219.174 199.148 219.364 198.651 219.364C195.415 219.364 195.586 223.667 193.448 170.197C193.282 166.046 189.067 171.834 189.067 156.137C189.067 144.541 193.106 136.461 193.106 135.214C193.106 134.375 192.421 134.799 192.421 127.152C192.421 95.2286 216.284 63.4177 254.938 63.4177C335.992 63.4177 324.744 159.328 324.744 212.256C324.744 214.662 323.947 214.836 322.178 214.836C321.917 214.836 316.699 214.822 306.2 214.822C299.583 214.822 292.671 214.827 287.066 214.827H286.364C287.3 216.122 288.161 216.571 294.409 219.269C296.937 220.361 308.137 221.548 308.186 221.548C308.205 221.548 308.262 221.547 308.375 221.547C341.378 221.547 367.128 235.213 380.474 318.845V322.79C380.383 323.072 380.018 329.768 375.081 335.896C409.062 331.592 441.615 230.942 407.603 201.133Z" fill="#52AB84"/>
</g>
<path fill-rule="evenodd" clip-rule="evenodd" d="M283.826 290.988C284.139 290.988 284.456 290.821 284.805 290.505C284.609 290.184 284.409 289.855 284.184 289.487C283.617 289.791 283.14 290.007 283.047 290.641C283.314 290.875 283.569 290.988 283.826 290.988ZM76.3561 270.418C76.9329 269.545 78.1546 265.751 78.1546 263.159C78.1546 261.192 77.4536 257.626 76.5202 257.626C75.8247 257.626 74.5903 259.646 74.5903 262.399C74.5903 265.305 76.0883 269.613 76.3561 270.418ZM85.4144 295.079C92.0808 289.158 99.1492 277.236 99.1492 266.012C99.1492 265.46 98.9482 246.167 82.898 246.167C73.9218 246.167 66.6006 254.149 66.6006 263.152C66.6006 269.976 70.3271 275.122 72.1536 275.122C73.288 275.122 74.177 274.045 74.5705 273.672C71.6007 264.929 71.8508 263.091 71.8508 262.489C71.8508 259.686 73.1791 254.761 76.5111 254.761C80.1404 254.761 80.8681 260.617 80.8681 263.34C80.8681 269.029 77.8591 273.307 77.8591 274.425C77.8591 275.961 79.5015 276.797 85.4144 295.079ZM282.333 287.282C280.688 284.942 273.857 278.213 267.242 278.213C262.855 278.213 259.708 281.446 259.708 287.866C259.708 300.625 272.726 314.822 277.586 314.822C289.518 314.822 306.078 300.204 306.078 289.776C306.078 285.123 302.438 283.763 299.139 283.763C294.319 283.763 287.926 286.775 286.549 287.982C286.979 288.673 287.54 289.385 287.54 290.45C287.54 292.499 285.544 293.746 283.834 293.746C282.266 293.746 280.244 292.668 280.244 290.533C280.244 288.786 281.64 287.897 282.333 287.282ZM160.815 315.049C160.045 315.391 135.495 328.115 93.9131 328.115C49.4951 328.115 30.5672 314.047 27.209 314.047C24.4916 314.047 21.0339 317.127 21.0339 320.695C21.0339 321.866 21.4728 335.205 21.4728 335.254C21.4728 335.464 21.4704 335.541 21.4704 335.608C21.4704 337.208 23.4914 342.049 63.873 342.049C114.851 342.049 162.294 334.249 162.294 328.587C162.294 327.269 161.088 317.365 160.815 315.049ZM193.666 231.901C198.742 257.293 227.658 264.725 246.95 264.725C278.429 264.725 304.942 246.727 304.942 225.884C304.942 225.244 304.914 224.598 304.853 223.944C297.301 222.898 296.139 222.885 294.231 222.087C286.182 218.719 285.7 217.946 284.398 216.804C283.343 215.879 282.755 214.657 282.686 213.239C282.661 212.729 280.569 165.512 280.569 164.169C280.569 163.23 280.701 162.387 282.484 162.387C284.486 162.387 282.855 162.799 288.419 162.872C287.932 157.524 287.831 157.548 287.831 156.908C287.831 155.382 289.131 155.398 289.19 155.398C291.15 155.398 290.422 158.128 291.249 162.836C293.235 162.394 297.588 161.873 297.837 157.736C297.84 157.68 299.085 150.362 299.085 139.611C299.085 124.959 299.01 115.601 291.084 115.601C281.52 115.601 280.641 120.578 280.641 144.967C280.641 145.367 280.642 145.768 280.642 146.168C280.642 149.117 281.036 150.395 278.796 150.395C267.254 150.395 262.193 119.245 240.821 119.245C240.141 119.245 239.932 119.277 238.929 119.277C233.615 119.277 229.243 118.999 225.162 102.993C207.953 110.979 191.824 133.522 191.824 156.13C191.824 168.139 191.608 167.497 212.721 167.497C212.886 167.497 213.052 167.494 213.217 167.494C214.393 167.494 215.834 167.619 216.085 169.806C216.091 169.854 219.624 217.192 219.624 217.241C219.624 227.169 201.943 230.06 193.666 231.901ZM83.9326 305.162C83.9326 303.688 83.7942 302.181 83.5932 300.615C65.3875 315.964 47.3359 316.424 42.598 316.424C41.8759 316.424 41.1509 316.411 40.4237 316.382C41.1192 317.034 61.8423 325.361 94.2366 325.361C127.769 325.361 151.412 316.799 160.499 312.094C156.65 278.156 152.813 244.334 148.967 210.43C147.506 210.511 14.6261 221.925 11.8914 222.319C11.8914 222.512 11.8858 222.645 11.8858 222.756C11.8858 222.805 18.9943 302.933 20.5432 304.477C27.032 310.95 32.5248 313.653 43.1822 313.653C63.8834 313.653 82.9123 299.103 82.9123 296.913C82.9123 295.656 76.5679 277.831 75.5083 276.531C74.2908 277.21 73.5546 277.721 72.3361 277.721C68.2526 277.721 63.8184 270.7 63.8184 263.508C63.8184 252.678 71.8959 243.477 83.0805 243.477C85.3109 243.477 101.875 244.644 101.875 266.006C101.875 285.02 86.1606 297.22 86.1606 299.166C86.1606 299.943 86.6776 301.493 86.6776 304.953C86.6776 307.104 86.514 309.327 85.5264 312.032C85.2852 312.693 84.7977 313.045 84.2513 313.045C84.2065 313.045 82.9319 313.021 82.9319 311.66C82.9319 310.632 83.9326 309.189 83.9326 305.162ZM280.567 317.397C283.546 319.558 319.573 343.253 349.214 343.253C378.562 343.253 377.835 320.843 377.835 320.377C377.835 315.23 376.088 294.45 364.156 266.412C352.471 238.953 344.402 228.838 318.465 225.377C313.769 244.13 314.145 253.658 311.563 253.658C310.867 253.658 310.236 253.14 310.236 252.272C310.236 252.013 309.889 253.068 315.575 225.142C313.165 224.871 310.877 224.341 308.445 224.341C308.194 224.341 307.943 224.346 307.689 224.358C307.689 224.688 307.703 224.991 307.703 225.283C307.703 247.581 281.356 267.463 246.863 267.463C226.308 267.463 196.503 259.382 190.918 232.465C184.266 233.013 162.862 235.99 158.746 248.731C156.912 254.406 156.883 255.029 156.883 255.719C156.883 256.208 162.778 308.909 163.193 310.792C166.827 308.581 177.274 299.216 199.299 299.216C232.304 299.216 238.649 316.75 261.484 316.75C265.082 316.75 272.227 315.758 272.416 315.673C272.252 315.311 256.938 304.113 256.938 287.566C256.938 280.561 261.011 275.483 267.171 275.483C276.018 275.483 283.33 284.165 284.79 285.739C290.47 282.358 295.336 281.041 298.998 281.041C300.059 281.041 308.818 281.044 308.818 289.762C308.818 298.686 297.353 313.588 280.567 317.397ZM380.474 322.792C380.304 323.314 379.199 345.999 349.524 345.999C315.682 345.999 276.627 317.769 275.5 317.769C275.451 317.769 266.207 319.505 261.105 319.505C238.115 319.505 231.169 301.964 199.458 301.964C178.184 301.964 168.366 310.715 163.437 313.793C163.97 318.515 164.506 323.267 165.064 328.208C171.8 324.833 172.536 323.226 183.611 321.626C183.261 312.474 182.957 307.827 182.957 307.311C182.957 306.923 183.134 305.816 184.299 305.816C185.002 305.816 185.511 306.276 185.613 307.083C185.806 308.611 186.398 322.307 186.398 322.45C186.398 323.937 185.963 324.251 184.241 324.392C162.269 326.194 166.207 344.788 64.0411 344.788C25.3109 344.788 21.2291 340.066 19.4704 338.661C18.9165 338.219 18.7478 337.611 18.7328 336.913C18.4673 324.771 18.2201 321.658 18.2201 320.805C18.2201 314.49 24.5565 311.792 24.8252 311.654C23.1132 310.244 21.0585 308.411 18.351 306.145C16.3169 304.442 8.948 221.107 8.948 221.059C8.948 219.074 150.203 207.503 150.251 207.503C151.107 207.503 151.776 208.032 151.776 208.778C151.776 208.993 151.697 209.264 151.697 210.012C151.697 210.356 155.603 245.893 156.106 247.38C171.924 222.16 202.359 235.874 216.628 219.347C216.193 219.262 215.957 219.175 215.724 219.175C215.156 219.175 199.147 219.365 198.651 219.365C195.414 219.365 195.586 223.668 193.447 170.199C193.282 166.048 189.066 171.836 189.066 156.139C189.066 144.543 193.105 136.463 193.105 135.216C193.105 134.377 192.42 134.801 192.42 127.154C192.42 95.2298 216.284 63.4189 254.937 63.4189C335.992 63.4189 324.744 159.33 324.744 212.258C324.744 214.664 323.947 214.838 322.178 214.838C321.917 214.838 316.698 214.823 306.199 214.823C299.582 214.823 292.67 214.828 287.066 214.828H286.364C287.3 216.123 288.16 216.572 294.408 219.271C296.936 220.363 308.137 221.549 308.185 221.549C308.204 221.549 308.262 221.548 308.375 221.548C341.377 221.548 367.128 235.215 380.474 318.846V322.792Z" fill="black"/>
<path fill-rule="evenodd" clip-rule="evenodd" d="M152.94 149.112C149.101 157.861 138.442 168.079 127.692 168.079C124.36 168.079 96.988 166.045 96.988 136.223C96.988 119.965 112.244 106.458 128.415 106.458C143.66 106.458 162.144 128.141 152.94 149.112Z" fill="black"/>
<path fill-rule="evenodd" clip-rule="evenodd" d="M32.9667 150.353C36.4773 143.314 33.2159 128.275 40.624 128.275C47.683 128.275 44.0654 145.713 48.1392 145.713C49.7437 145.713 50.678 142.281 52.3961 138.038C54.3167 133.294 58.7185 130.806 60.9695 130.806C68.7852 130.806 66.4646 149.375 68.7707 149.375C69.5811 149.375 70.5313 147.93 72.2485 147.93C73.4123 147.93 74.4027 148.685 74.9678 150.18C76.9393 155.395 77.5417 169.173 77.5417 172.188C77.5417 175.175 77.252 177.469 74.2275 177.915C74.1793 177.922 23.4002 181.217 23.3521 181.217C21.9303 181.217 21.8218 180.331 21.8218 180.127C21.8218 179.915 21.9181 179.672 21.9181 178.959C21.9181 177.788 18.8352 157.159 18.8352 155.88C18.8352 154.87 20.6992 140.802 26.8276 140.802C30.7719 140.802 29.8016 146.069 32.9667 150.353Z" fill="black"/>
<path fill-rule="evenodd" clip-rule="evenodd" d="M7.62587 111.36C7.52772 111.992 7.39545 112.622 7.34029 113.258C7.26504 114.119 6.66305 114.698 5.82548 114.698C5.59272 114.698 4.50464 114.622 4.50464 113.464C4.50464 113.31 4.52754 113.144 4.57568 112.969C6.76494 105.034 6.86075 104.828 7.82778 104.828C8.35406 104.828 10.777 105.647 11.9016 107.394C13.2154 109.435 14.5825 110.433 14.5825 111.457C14.5825 112.32 13.765 112.661 13.3533 112.661C12.511 112.661 12.2227 111.995 10.6064 110.033L10.3765 110.123L21.562 182.355C41.3873 181.14 61.1355 179.929 81.0262 178.71C80.8168 178.304 80.5691 177.95 80.5691 177.488C80.5691 176.764 81.2922 176.388 81.718 176.388C82.1353 176.388 82.8336 176.77 83.0033 176.89C85.9754 178.982 86.6494 179.415 86.6494 180.253C86.6494 180.746 86.3063 181.215 85.6272 181.567C79.833 184.569 79.753 184.408 79.4941 184.408C78.5388 184.408 78.2761 183.542 78.2761 183.2C78.2761 182.226 79.216 182.069 79.5021 181.409C74.8913 181.624 22.4557 184.947 21.6593 184.947C17.1499 184.947 10.4555 120.587 7.90537 111.399C7.81189 111.386 7.71888 111.373 7.62587 111.36Z" fill="black"/>
<path fill-rule="evenodd" clip-rule="evenodd" d="M161.332 188.824C161.234 188.752 159.519 187.342 158.216 187.342C157.201 187.342 156.402 188.107 156.402 189.38C156.402 190.74 157.286 191.352 158.055 191.352C159.381 191.352 160.84 189.574 161.332 188.824ZM163.096 191.058C161.332 192.53 160.167 193.949 158.052 193.949C156.798 193.949 153.812 192.971 153.812 189.399C153.812 186.727 155.691 184.762 158.183 184.762C159.606 184.762 160.754 185.396 162.556 186.42C162.556 186.052 162.576 185.741 162.576 185.455C162.576 179.523 154.788 174.561 150.032 174.561C149.423 174.561 148.797 174.603 148.146 174.603C148.267 176.489 149.352 178.806 149.352 179.308C149.352 179.996 148.704 180.364 148.225 180.364C147.348 180.364 146.931 179.214 146.925 179.193C145.361 174.095 145.431 174.006 145.431 173.712C145.431 173.06 145.709 172.483 146.321 172.052C153.028 167.326 152.886 167.465 153.356 167.465C154.26 167.465 154.547 168.35 154.547 168.683C154.547 169.669 153.688 169.923 150.63 171.837C165.018 175.009 165.19 185.198 165.19 185.448C165.19 187.201 164.7 187.847 164.7 188.282C164.7 189.324 167.171 191.245 167.171 197.843C167.171 206.792 162.033 216.059 160.381 216.059C159.922 216.059 159.327 215.704 159.327 215.022C159.327 213.6 164.579 207.372 164.579 197.933C164.579 193.257 163.139 191.124 163.096 191.058Z" fill="black"/>
<path fill-rule="evenodd" clip-rule="evenodd" d="M179.91 74.5357C180.441 73.4331 180.902 72.4748 181.344 71.5553C180.588 70.3507 179.845 69.1663 179.192 68.127C178.304 68.9523 177.443 69.751 176.519 70.6101C178.05 71.5235 179.05 72.9111 179.91 74.5357ZM180.358 81.2362C179.016 81.2362 179.221 80.0906 177.875 76.3073C176.037 71.1392 172 72.9969 172 70.5718C172 69.1631 173.607 69.2666 175.284 68.1074C179.028 65.5194 178.387 62.1406 180.026 62.1406C182.479 62.1406 179.589 65.047 183.14 69.4847C183.493 69.9253 184.843 70.2287 184.843 71.3242C184.843 71.6257 184.712 71.9258 184.428 72.1832C180.705 75.5526 182.816 81.2362 180.358 81.2362Z" fill="black"/>
<path fill-rule="evenodd" clip-rule="evenodd" d="M340.368 95.9184C341.118 96.9071 341.882 97.9127 342.656 98.9329C343.218 98.0078 343.808 97.0354 344.354 96.1356C343.75 95.0209 343.185 93.9778 342.64 92.9727C341.864 93.9787 341.096 94.9755 340.368 95.9184ZM347.781 96.3608C347.781 96.3702 347.781 96.3791 347.781 96.3885C347.647 96.5842 347.468 97.0519 347.13 97.3051C344.423 99.329 344.349 103.18 344.349 103.745C344.349 103.825 344.35 103.906 344.35 103.986C344.35 104.247 344.418 105.936 342.972 105.936C341.268 105.936 341.801 103.418 339.835 99.4475C338.429 96.6076 335.575 98.1975 335.575 96.1221C335.575 95.5912 335.896 95.1005 336.53 94.9058C342.91 92.9456 340.059 86.0537 342.454 86.0537C344.232 86.0537 343.358 88.0996 345.466 92.8051C346.625 95.3903 347.781 94.505 347.781 96.3608Z" fill="black"/>
<path fill-rule="evenodd" clip-rule="evenodd" d="M367.369 206.742C367.726 205.946 368.081 205.154 368.395 204.456C367.747 203.377 367.144 202.373 366.518 201.329C365.881 202.336 365.258 203.321 364.676 204.241C365.548 205.051 366.41 205.851 367.369 206.742ZM367.508 213.993C366.898 213.993 366.457 213.657 366.271 212.919C365.964 211.702 365.688 206.76 362.935 206.76C362.416 206.76 361.963 206.962 361.24 206.962C360.02 206.962 359.821 205.937 359.821 205.609C359.821 204.001 364.307 203.091 364.942 197.742C365.095 196.453 366.605 195.793 366.936 195.793C367.502 195.793 368.033 196.373 368.211 197.159C369.916 204.679 371.588 201.975 371.588 203.88C371.588 204.181 371.473 204.507 371.254 204.84C367.723 210.195 369.964 213.993 367.508 213.993Z" fill="black"/>
<path fill-rule="evenodd" clip-rule="evenodd" d="M88.3499 129.175C88.8416 129.175 89.3342 129.164 89.8263 129.164C90.4667 129.164 92.1853 129.02 92.1853 130.437C92.1853 131.019 91.7571 131.591 91.0388 131.647C89.2893 131.783 85.6787 131.85 85.6306 131.85C85.1029 131.85 84.3354 131.29 84.3354 130.488C84.3354 129.125 85.6703 129.205 86.6266 129.205C87.2006 129.205 87.7754 129.223 88.3499 129.223C88.3499 129.207 88.3499 129.191 88.3499 129.175Z" fill="black"/>
<path fill-rule="evenodd" clip-rule="evenodd" d="M123.403 96.2303C123.401 96.1976 123.401 96.1648 123.401 96.1329C123.401 95.331 123.799 94.7725 124.65 94.7725C124.695 94.7725 126.11 94.7814 128.949 95.353C129.572 95.4785 129.887 96.0131 129.887 96.5388C129.887 97.9761 128.148 97.7879 127.24 97.8652C124.716 98.0796 125.146 98.1311 124.625 98.1311C123.493 98.1311 123.527 97.2013 123.403 96.2303Z" fill="black"/>
<path fill-rule="evenodd" clip-rule="evenodd" d="M163.164 133.604C163.634 133.705 165.135 133.755 165.135 135.053C165.135 135.943 164.426 136.203 164.216 136.269C163.283 136.559 159.988 137.083 159.95 137.083C159.42 137.083 158.71 136.643 158.71 135.924C158.71 133.79 161.184 133.876 163.164 133.604Z" fill="black"/>
<path fill-rule="evenodd" clip-rule="evenodd" d="M6.72334 132.217C7.43097 132.217 7.86283 132.784 7.86283 133.718C7.86283 134.962 6.80607 134.99 6.71633 134.99C6.0087 134.99 5.35669 134.337 5.35669 133.625C5.35669 132.906 5.99842 132.217 6.72334 132.217Z" fill="black"/>
<path fill-rule="evenodd" clip-rule="evenodd" d="M5.47857 125.572C4.6354 125.572 3.74829 124.863 3.74829 124.143C3.74829 123.548 4.28813 123.027 4.93686 123.027C5.52063 123.027 6.59142 123.572 6.59142 124.497C6.59142 124.916 6.28856 125.572 5.47857 125.572Z" fill="black"/>
<path fill-rule="evenodd" clip-rule="evenodd" d="M14.3159 185.575C13.6331 185.575 13.0273 184.981 13.0273 184.343C13.0273 183.686 13.6172 183.092 14.2767 183.092C14.9535 183.092 15.5162 183.653 15.5162 184.339C15.5162 185.027 14.9806 185.575 14.3159 185.575Z" fill="black"/>
<path fill-rule="evenodd" clip-rule="evenodd" d="M11.8605 169.615C12.1255 169.615 13.1771 169.79 13.1771 170.787C13.1771 171.619 12.4097 171.977 11.9451 171.977C11.2248 171.977 10.6345 171.435 10.6345 170.754C10.6345 170.582 10.7331 169.615 11.8605 169.615Z" fill="black"/>
<path fill-rule="evenodd" clip-rule="evenodd" d="M11.0014 158.252C10.0774 158.252 9.66797 157.565 9.66797 157.059C9.66797 156.238 10.3901 155.936 10.8411 155.936C11.5478 155.936 12.1951 156.515 12.1951 157.155C12.1951 157.172 12.1624 158.252 11.0014 158.252Z" fill="black"/>
<path fill-rule="evenodd" clip-rule="evenodd" d="M7.60596 143.962C7.60596 143.349 8.06026 142.892 8.67161 142.892C9.28809 142.892 9.74193 143.349 9.74193 143.961C9.74193 144.584 9.28996 145.031 8.67815 145.031C7.87284 145.031 7.60596 144.382 7.60596 143.962Z" fill="black"/>
<path fill-rule="evenodd" clip-rule="evenodd" d="M290.775 139.747C291.515 139.627 292.155 139.493 292.56 139.493C293.794 139.493 294.684 140.347 294.684 143.156C294.684 143.92 294.305 151.952 294.278 152.089C294.231 152.331 293.957 153.231 292.985 153.231C291.699 153.231 291.609 152.073 291.609 150.214C291.609 148.543 291.975 144.4 291.975 143.404C291.975 143.104 291.966 142.784 291.966 142.411C291.303 142.491 290.853 142.571 290.407 142.571C287.634 142.571 287.89 141.1 287.89 129.356C287.89 125.038 288.648 125.019 289.353 125.019C291.904 125.019 289.848 130.798 290.775 139.747" fill="black"/>
<path fill-rule="evenodd" clip-rule="evenodd" d="M233.968 165.836C232.106 165.423 230.252 165.333 230.252 163.984C230.252 163.791 230.357 162.725 231.494 162.725C232.115 162.725 232.618 163.13 234.033 163.13C235.713 163.13 237.233 162.435 238.657 161.342C242.552 158.35 241.829 155.352 243.631 155.352C244.47 155.352 244.872 156.085 244.872 156.626C244.872 157.983 241.226 165.401 233.968 165.836Z" fill="black"/>
<path fill-rule="evenodd" clip-rule="evenodd" d="M212 129.706C212 129.691 212 129.676 212 129.66C213.995 124.61 219.46 122.314 220.69 122.314C221.359 122.314 222.038 122.812 222.038 123.669C222.038 124.711 220.905 124.99 220.746 125.048C215.093 127.088 215.02 131.255 213.334 131.255C212.86 131.255 212 130.961 212 129.706Z" fill="black"/>
<path fill-rule="evenodd" clip-rule="evenodd" d="M227.151 140.244C227.129 140.635 227.127 142.362 225.166 142.362C223.617 142.362 223.392 140.175 223.392 139.457C223.392 138.526 223.837 136.945 225.134 136.945C226.663 136.945 226.704 138.348 227.151 140.244Z" fill="black"/>
<path fill-rule="evenodd" clip-rule="evenodd" d="M239.875 138.763C239.857 139.151 239.944 141.025 238.42 141.025C237.745 141.025 236.474 140.577 236.474 138.315C236.474 136.749 236.944 135.873 238.087 135.873C239.415 135.873 239.485 137.054 239.993 138.725C239.953 138.738 239.914 138.75 239.875 138.763Z" fill="black"/>
<path fill-rule="evenodd" clip-rule="evenodd" d="M221.469 147.332C221.32 147.284 221.049 147.235 220.819 147.111C218.731 145.99 217.818 145.566 217.818 144.621C217.818 144.261 218.118 143.283 219.142 143.283C219.378 143.283 219.631 143.343 219.889 143.47C222.537 144.766 222.935 145.246 222.935 145.959C222.935 146.007 222.934 147.278 221.469 147.332Z" fill="black"/>
<path fill-rule="evenodd" clip-rule="evenodd" d="M244.846 145.595C243.754 145.497 243.59 144.694 243.59 144.333C243.59 144.043 243.701 143.779 243.943 143.611C245.177 142.751 247.109 141.526 247.552 141.526C248.188 141.526 248.841 142.235 248.841 142.951C248.841 143.317 248.67 143.654 248.313 143.866C248.186 143.941 245.798 145.335 244.846 145.595Z" fill="black"/>
<path fill-rule="evenodd" clip-rule="evenodd" d="M78.1546 263.161C78.1546 261.194 77.4531 257.628 76.5202 257.628C75.8247 257.628 74.5903 259.648 74.5903 262.401C74.5903 264.693 75.5209 267.852 76.0458 269.481C76.2711 269.547 76.4949 269.612 76.7235 269.677C77.3367 268.205 78.1546 265.281 78.1546 263.161Z" fill="#52AB84"/>
<path fill-rule="evenodd" clip-rule="evenodd" d="M282.332 287.283C280.687 284.942 273.857 278.213 267.241 278.213C262.855 278.213 259.708 281.447 259.708 287.866C259.708 300.625 272.726 314.822 277.585 314.822C289.518 314.822 306.078 300.204 306.078 289.776C306.078 285.123 302.437 283.763 299.139 283.763C294.318 283.763 287.925 286.775 286.549 287.982C286.979 288.673 287.539 289.385 287.539 290.45C287.539 292.499 285.544 293.746 283.833 293.746C282.265 293.746 280.244 292.669 280.244 290.533C280.244 288.786 281.64 287.897 282.332 287.283Z" fill="#52AB84"/>
<path fill-rule="evenodd" clip-rule="evenodd" d="M284.184 289.488C283.617 289.792 283.139 290.007 283.047 290.642C283.314 290.876 283.568 290.989 283.826 290.989C284.139 290.989 284.456 290.822 284.805 290.506C284.609 290.185 284.408 289.856 284.184 289.488Z" fill="#52AB84"/>
<path fill-rule="evenodd" clip-rule="evenodd" d="M156.402 189.379C156.402 190.74 157.286 191.351 158.055 191.351C159.381 191.351 160.84 189.573 161.333 188.824C161.234 188.751 159.519 187.341 158.216 187.341C157.201 187.341 156.402 188.106 156.402 189.379Z" fill="#52AB84"/>
<path fill-rule="evenodd" clip-rule="evenodd" d="M340.368 95.9184C341.119 96.9071 341.882 97.9127 342.656 98.9329C343.218 98.0078 343.808 97.0354 344.354 96.1356C343.75 95.0209 343.185 93.9778 342.64 92.9727C341.864 93.9787 341.096 94.9755 340.368 95.9184Z" fill="#52AB84"/>
<path fill-rule="evenodd" clip-rule="evenodd" d="M364.675 204.242C365.547 205.052 366.409 205.852 367.368 206.742C367.725 205.947 368.08 205.155 368.394 204.456C367.747 203.378 367.144 202.374 366.517 201.33C365.88 202.337 365.257 203.322 364.675 204.242Z" fill="#52AB84"/>
<path fill-rule="evenodd" clip-rule="evenodd" d="M176.519 70.6111C178.05 71.5245 179.05 72.9126 179.911 74.5366C180.441 73.4341 180.902 72.4758 181.345 71.5568C180.588 70.3517 179.845 69.1673 179.192 68.1279C178.303 68.9533 177.443 69.7525 176.519 70.6111Z" fill="#52AB84"/>
</svg>
